<svg width="55" height="68" viewBox="0 0 55 68" fill="none" xmlns="http://www.w3.org/2000/svg">
	<path
		d="M42.1819 3.22002C38.1019 1.54002 33.4219 0.700012 28.2619 0.700012C23.9419 0.700012 19.9819 1.42001 16.2619 2.74001C12.4219 4.18001 9.42188 6.22002 7.14188 8.86002C4.74188 11.62 3.66188 14.98 3.66188 18.82C3.66188 28.54 11.3419 34.9 26.7019 37.78C32.5819 38.98 36.7819 40.3 39.3019 41.98C41.7019 43.66 43.0219 45.7 43.0219 48.1C43.0219 50.74 41.7019 52.78 39.1819 54.22C36.6619 55.78 33.1819 56.5 28.6219 56.5C25.1419 56.5 21.9019 55.9 18.9019 54.7C15.7819 53.5 13.5019 51.94 12.0619 50.26C10.6219 48.82 9.06188 48.1 7.50188 48.1C6.18188 48.1 4.74188 48.7 3.30188 49.78C1.62188 50.98 0.901886 52.54 0.901886 54.46C0.901886 55.9 1.38188 57.22 2.46188 58.18C5.10188 60.94 8.94188 63.1 13.7419 64.78C18.5419 66.46 23.5819 67.3 29.1019 67.3C34.5019 67.3 39.1819 66.46 43.0219 64.78C46.8619 63.1 49.8619 60.7 51.9019 57.7C53.8219 54.7 54.9019 51.34 54.9019 47.62C54.9019 42.7 52.9819 38.62 49.3819 35.5C45.7819 32.38 39.5419 29.98 30.9019 28.18C26.5819 27.34 23.3419 26.5 21.1819 25.54C18.9019 24.58 17.3419 23.62 16.6219 22.54C15.7819 21.46 15.4219 20.14 15.4219 18.46C15.4219 16.3 16.5019 14.5 18.9019 13.3C21.3019 12.1 24.3019 11.38 28.0219 11.38C31.1419 11.38 33.9019 11.86 36.1819 12.58C38.3419 13.3 40.5019 14.62 42.5419 16.42C44.2219 17.98 46.0219 18.7 48.1819 18.7C49.5019 18.7 50.5819 18.46 51.5419 17.74C52.8619 16.66 53.5819 15.46 53.5819 14.02C53.5819 12.82 52.9819 11.5 52.0219 10.18C49.6219 7.30002 46.2619 4.90002 42.1819 3.22002Z"
		fill="#FFA541" />
</svg>
