<?xml version="1.0" encoding="UTF-8"?>
<svg width="32px" height="32px" viewBox="0 0 32 32" version="1.1" xmlns="http://www.w3.org/2000/svg" xmlns:xlink="http://www.w3.org/1999/xlink">
    <!-- Generator: sketchtool 62 (101010) - https://sketch.com -->
    <title>0922591C-2BA9-47C8-92E0-AA722B6C0E0F</title>
    <desc>Created with sketchtool.</desc>
    <defs>
        <circle id="path-1" cx="16" cy="16" r="16"></circle>
    </defs>
    <g id="Page-1" stroke="none" stroke-width="1" fill="none" fill-rule="evenodd">
        <g id="landing-page-redesign/-v1-dropdown" transform="translate(-244.000000, -138.000000)">
            <g id="Group-53" transform="translate(220.000000, 70.000000)">
                <g id="Group-51" transform="translate(24.000000, 34.000000)">
                    <g id="Group-50" transform="translate(0.000000, 34.000000)">
                        <g id="Dropdown-Icon/1">
                            <g id="Group-7">
                                <mask id="mask-2" fill="white">
                                    <use xlink:href="#path-1"></use>
                                </mask>
                                <use id="Oval" fill="#4DC3B6" opacity="0.1" xlink:href="#path-1"></use>
                                <polygon id="Path-3" fill="#4DC3B6" fill-rule="nonzero" opacity="0.3" mask="url(#mask-2)" points="26.88 16.32 19.84 16.32 19.84 44.48 26.88 44.48"></polygon>
                                <polygon id="Path-3" fill="#4DC3B6" fill-rule="nonzero" opacity="0.3" mask="url(#mask-2)" points="16.64 22.72 9.6 22.72 9.6 50.88 16.64 50.88"></polygon>
                                <g id="Group-19" mask="url(#mask-2)" fill="#4DC3B6" opacity="0.8" stroke="#4DC3B6" stroke-width="0.64">
                                    <g transform="translate(-3.200000, 8.320000)" id="Fill-12">
                                        <path d="M21.3934758,0.323275191 C20.9505512,0.352148433 20.7482521,0.887109519 21.0621467,1.19951214 L22.6116105,2.74203212 L16.3073826,9.01785848 L12.6279684,5.34929387 C12.2418346,4.96500128 11.6161052,4.96507456 11.2299714,5.34929387 L0.289489985,16.2401489 C-0.0964966617,16.6244415 -0.0964966617,17.2475612 0.289489985,17.6317806 C0.482593653,17.8238536 0.735504287,17.92 0.988488483,17.92 C1.24147268,17.92 1.49445688,17.8238536 1.68748698,17.6317806 L11.9289699,7.43674134 L15.6083841,11.1052327 C15.9945179,11.4895253 16.6201738,11.489452 17.0063076,11.1052327 L24.0096075,4.13366377 L25.6750807,5.79153016 C25.9889017,6.10393278 26.5262816,5.90262619 26.5552656,5.46175963 L26.8788706,0.547665718 C26.8992476,0.2377547 26.641114,-0.0191731859 26.3299412,0.00112602237 L21.3934758,0.323275191 Z"></path>
                                    </g>
                                </g>
                            </g>
                        </g>
                    </g>
                </g>
            </g>
        </g>
    </g>
</svg>