<?xml version="1.0" encoding="UTF-8"?>
<svg width="32px" height="32px" viewBox="0 0 32 32" version="1.1" xmlns="http://www.w3.org/2000/svg" xmlns:xlink="http://www.w3.org/1999/xlink">
    <!-- Generator: sketchtool 62 (101010) - https://sketch.com -->
    <title>2B7B0AB8-DA6D-4E5B-90EB-CEEA3C6A391C</title>
    <desc>Created with sketchtool.</desc>
    <g id="Page-1" stroke="none" stroke-width="1" fill="none" fill-rule="evenodd">
        <g id="landing-page-redesign/-v1-dropdown" transform="translate(-244.000000, -332.000000)">
            <g id="Group-53" transform="translate(220.000000, 70.000000)">
                <g id="Group-51" transform="translate(24.000000, 228.000000)">
                    <g id="Group-50-Copy" transform="translate(0.000000, 34.000000)">
                        <g id="Dropdown-Icon/5">
                            <g id="Group-7">
                                <circle id="Oval" fill="#9760BC" opacity="0.100000001" cx="16" cy="16" r="16"></circle>
                                <g id="wallet-(7)" transform="translate(6.400000, 6.400000)" fill-rule="nonzero">
                                    <path d="M15.4645029,2.45023347 L4.59753796,2.45023347 C2.05953306,2.45301551 0.00278204082,4.50976653 0,7.04777143 L0,7.88367673 C0,8.11450776 0.187141224,8.30164898 0.417972245,8.30164898 L19.6441078,8.30164898 C19.8749388,8.30164898 20.06208,8.11450776 20.06208,7.88367673 L20.06208,7.04777143 C20.0592588,4.50976653 18.0025078,2.45301551 15.4645029,2.45023347 Z" id="Path" fill="#664180"></path>
                                    <path d="M17.0920359,5.18870204 L15.3223837,1.64943673 C14.5997976,0.204146939 12.842449,-0.381688163 11.3971592,0.340858776 C11.3709453,0.353946122 11.3449665,0.36746449 11.3191445,0.38133551 L2.72761469,5.00732082 C2.52448653,5.11695673 2.44870531,5.37051429 2.55834122,5.57364245 C2.63122286,5.70870857 2.77228408,5.79291429 2.92572735,5.79307102 L16.7183804,5.79307102 C16.9492114,5.79307102 17.1363135,5.6059298 17.1363135,5.37509878 C17.1363135,5.31009306 17.1211494,5.24598857 17.0920359,5.18787918 L17.0920359,5.18870204 Z" id="Path" fill="#78E08F"></path>
                                    <path d="M2.92572735,4.95798857 L17.1363527,4.95798857 C18.7521698,4.95798857 20.06208,6.26785959 20.06208,7.88371592 L20.06208,16.2428865 C20.06208,17.8587037 18.752209,19.1686139 17.1363527,19.1686139 L2.92572735,19.1686139 C1.30987102,19.1686139 0,17.8587037 0,16.2428865 L0,7.88371592 C0,6.26785959 1.30987102,4.95798857 2.92572735,4.95798857 Z" id="Path" fill="#9760BC"></path>
                                    <path d="M19.6440686,9.13759347 L16.3004082,9.13759347 C14.684591,9.13845551 13.3753861,10.4489927 13.3762086,12.064849 C13.377071,13.6794906 14.6857665,14.9881861 16.3004082,14.9890482 L19.6440686,14.9890482 C19.8748996,14.9890482 20.0620408,14.8019069 20.0620408,14.5710759 L20.0620408,9.55556571 C20.0620408,9.32469551 19.8748996,9.13759347 19.6440686,9.13759347 Z" id="Path" fill="#664180"></path>
                                    <circle id="Oval" fill="#5FC977" cx="16.3004082" cy="12.0632816" r="1.25387755"></circle>
                                </g>
                            </g>
                        </g>
                    </g>
                </g>
            </g>
        </g>
    </g>
</svg>