<svg width="24" height="12" viewBox="0 0 24 12" xmlns="http://www.w3.org/2000/svg"><g fill="none" fill-rule="evenodd" stroke="#FFF"><g fill="#E6E6E6"><path d="M8.133.58a11.699 11.699 0 017.275 0l-1.952 6.007a5.415 5.415 0 00-3.371 0L8.133.58z"/><path d="M7.358 8.568l-5.11-3.713A11.7 11.7 0 018.133.58l1.952 6.006a5.42 5.42 0 00-2.727 1.982"/><path d="M6.316 11.774H0a11.7 11.7 0 012.248-6.92l5.11 3.714a5.42 5.42 0 00-1.042 3.206m9.867-3.206a5.426 5.426 0 00-2.728-1.982L15.408.58a11.701 11.701 0 015.885 4.275l-5.11 3.713z"/><path d="M23.54 11.774h-6.315c0-1.16-.36-2.268-1.042-3.206l5.11-3.713a11.7 11.7 0 012.248 6.919"/></g><path d="M8.133.58a11.699 11.699 0 017.275 0l-1.952 6.007a5.415 5.415 0 00-3.371 0L8.133.58z" fill="#FFC000"/><path d="M7.358 8.568l-5.11-3.713A11.7 11.7 0 018.133.58l1.952 6.006a5.42 5.42 0 00-2.727 1.982" fill="#9EC91C"/><path d="M6.316 11.774H0a11.7 11.7 0 012.248-6.92l5.11 3.714a5.42 5.42 0 00-1.042 3.206" fill="#6ACA1D"/><path d="M16.183 8.568a5.426 5.426 0 00-2.728-1.982L15.408.58a11.701 11.701 0 015.885 4.275l-5.11 3.713z" fill="#FF8400"/><path d="M23.54 11.774h-6.315c0-1.16-.36-2.268-1.042-3.206l5.11-3.713a11.7 11.7 0 012.248 6.919" fill="#F50"/></g></svg>