<?xml version="1.0" encoding="UTF-8"?>
<svg width="32px" height="32px" viewBox="0 0 32 32" version="1.1" xmlns="http://www.w3.org/2000/svg" xmlns:xlink="http://www.w3.org/1999/xlink">
    <!-- Generator: sketchtool 62 (101010) - https://sketch.com -->
    <title>5F31599A-4BA2-48E5-8DA7-CA12303AF182</title>
    <desc>Created with sketchtool.</desc>
    <defs>
        <circle id="path-1" cx="16" cy="16" r="16"></circle>
    </defs>
    <g id="Page-1" stroke="none" stroke-width="1" fill="none" fill-rule="evenodd">
        <g id="landing-page-redesign/-v1-dropdown" transform="translate(-244.000000, -524.000000)">
            <g id="Group-53" transform="translate(220.000000, 70.000000)">
                <g id="Group-51" transform="translate(24.000000, 228.000000)">
                    <g id="Group-50-Copy-4" transform="translate(0.000000, 226.000000)">
                        <g id="Dropdown-Icon/8">
                            <g id="Group-7">
                                <mask id="mask-2" fill="white">
                                    <use xlink:href="#path-1"></use>
                                </mask>
                                <use id="Oval" fill="#6ACA1D" opacity="0.100000001" xlink:href="#path-1"></use>
                            </g>
                            <g id="Group" transform="translate(7.040000, 6.400000)">
                                <rect id="Rectangle" fill="#6ACA1D" x="0" y="1.73419355" width="18.4980645" height="16.1858065" rx="2.31225806"></rect>
                                <rect id="Rectangle" fill="#4F9A13" x="3.4683871" y="0" width="2.31225806" height="4.62451613" rx="1.15612903"></rect>
                                <rect id="Rectangle-Copy-2" fill="#4F9A13" x="12.7174194" y="0" width="2.31225806" height="4.62451613" rx="1.15612903"></rect>
                                <path d="M9.24903226,12.3968029 L7.55465891,13.2499767 C7.41491005,13.3202098 7.24567096,13.3084344 7.11798344,13.2195935 C6.99029593,13.1307525 6.92626077,12.9802231 6.95275812,12.8311932 L7.27633636,11.0238347 L5.90554126,9.74364047 C5.79273725,9.63799602 5.75221717,9.48021883 5.80097959,9.33649802 C5.84974201,9.19277721 5.97935329,9.08796982 6.1354402,9.0660436 L8.02984374,8.80246145 L8.87703042,7.15810769 C8.94699704,7.02256057 9.09118078,6.93677419 9.24903226,6.93677419 C9.40688374,6.93677419 9.55106748,7.02256057 9.6210341,7.15810769 L10.4682208,8.80246145 L12.3626243,9.0660436 C12.5187112,9.08796982 12.6483225,9.19277721 12.6970849,9.33649802 C12.7458474,9.48021883 12.7053273,9.63799602 12.5925233,9.74364047 L11.2217282,11.0238347 L11.5453064,12.8311932 C11.5718037,12.9802231 11.5077686,13.1307525 11.3800811,13.2195935 C11.2523936,13.3084344 11.0831545,13.3202098 10.9434056,13.2499767 L9.24903226,12.3968029 Z" id="Path" fill="#FFFFFF" fill-rule="nonzero"></path>
                            </g>
                        </g>
                    </g>
                </g>
            </g>
        </g>
    </g>
</svg>