<?xml version="1.0" encoding="UTF-8"?>
<svg width="32px" height="32px" viewBox="0 0 32 32" version="1.1" xmlns="http://www.w3.org/2000/svg" xmlns:xlink="http://www.w3.org/1999/xlink">
    <!-- Generator: sketchtool 62 (101010) - https://sketch.com -->
    <title>00D226EA-D2D2-4715-95D3-9427E94B6278</title>
    <desc>Created with sketchtool.</desc>
    <defs>
        <circle id="path-1" cx="16" cy="16" r="16"></circle>
    </defs>
    <g id="Page-1" stroke="none" stroke-width="1" fill="none" fill-rule="evenodd">
        <g id="landing-page-redesign/-v1-dropdown" transform="translate(-244.000000, -380.000000)">
            <g id="Group-53" transform="translate(220.000000, 70.000000)">
                <g id="Group-51" transform="translate(24.000000, 228.000000)">
                    <g id="Group-50-Copy-2" transform="translate(0.000000, 82.000000)">
                        <g id="Dropdown-Icon/7">
                            <mask id="mask-2" fill="white">
                                <use xlink:href="#path-1"></use>
                            </mask>
                            <use id="Oval" fill="#4DC3B6" opacity="0.2" xlink:href="#path-1"></use>
                            <g id="tax-(5)" mask="url(#mask-2)">
                                <g transform="translate(6.400000, 7.040000)">
                                    <path d="M3.216825,0.0191625 C2.3752125,0.3152625 1.9383375,1.2424875 2.245875,2.0800125 L7.6172625,16.69695 C8.0919375,17.9896875 9.524625,18.681975 10.8162375,18.204225 C12.119475,17.7221625 12.7761,16.2588375 12.2562,14.9590125 C11.7753375,13.7568 10.4215875,13.1239125 9.190425,13.5248625 C8.895075,13.62105 8.6316,13.76745 8.4043125,13.9501875 L3.216825,0.0191625 L3.216825,0.0191625 Z M9.563175,14.8090875 C10.1550375,14.591775 10.811025,14.8954125 11.0283375,15.487275 C11.24565,16.0791375 10.9420125,16.735125 10.35015,16.9524375 C9.7582875,17.16975 9.1023,16.8661125 8.8849875,16.27425 C8.667675,15.6823875 8.9713125,15.0264375 9.563175,14.8090875 Z" id="Shape" fill="#2D5872" fill-rule="nonzero"></path>
                                    <path d="M8.4043125,13.9501875 L8.404275,13.950075 L3.2168625,0.0191625 L3.2168625,0.0191625 C3.177225,0.0331125 3.13875,0.0489 3.10095,0.0655875 L3.10095,0.0655875 C3.0798375,0.0748875 3.0589875,0.0845625 3.0384375,0.0946875 C3.0295875,0.0990375 3.020775,0.103425 3.012075,0.1079625 C2.9897625,0.119475 2.967825,0.1315125 2.946225,0.144 C2.94075,0.14715 2.9351625,0.15015 2.9297625,0.153375 C2.9019,0.1699125 2.8746375,0.187125 2.84805,0.2052 C2.8476,0.2055 2.8471875,0.2058 2.8467375,0.2061375 C2.8462875,0.2064375 2.845875,0.206775 2.845425,0.207075 C2.8201875,0.224325 2.795625,0.2422875 2.7715875,0.2608125 C2.766825,0.2644875 2.762175,0.2682375 2.7574875,0.27195 C2.736375,0.2886 2.71575,0.3057 2.6956125,0.3232875 C2.691825,0.3265875 2.688,0.3298875 2.68425,0.333225 C2.6359125,0.3763125 2.5903125,0.4219875 2.5479,0.470175 L2.5479,0.470175 L2.5479,0.470175 L7.9707375,15.0778125 C7.9986375,15.0553875 8.0271,15.033525 8.0560875,15.012225 C8.453925,14.5310625 9.0553875,14.2244625 9.728475,14.2244625 C10.9264125,14.2244625 11.8975125,15.1955625 11.8975125,16.3935 C11.8975125,17.0787375 11.5794375,17.68935 11.0832375,18.08685 C11.3619,17.94495 11.60415,17.7552 11.80365,17.5317 C11.80575,17.5293375 11.8079625,17.5270125 11.8100625,17.5246125 C11.8320375,17.499825 11.8533375,17.4745125 11.874225,17.4489 C11.8778625,17.4444375 11.881575,17.4400125 11.8852125,17.4355125 C11.9049,17.4110625 11.9239875,17.3862 11.9427,17.361075 C11.947125,17.35515 11.95155,17.349225 11.9559,17.343225 C11.9737125,17.31885 11.991,17.294175 12.007875,17.2692 C12.0126375,17.26215 12.0173625,17.2551 12.02205,17.247975 C12.03825,17.2234875 12.054,17.1987375 12.0693,17.1737625 C12.0741,17.165925 12.0787875,17.1580125 12.083475,17.1501 C12.09825,17.12535 12.1126875,17.1004125 12.1265625,17.0751375 C12.1311375,17.066775 12.1355625,17.0583375 12.1400625,17.0499375 C12.1536,17.0247 12.1668375,16.9993125 12.179475,16.9735875 C12.1836375,16.96515 12.1875,16.9566 12.1915875,16.9480875 C12.2040375,16.9220625 12.2163,16.895925 12.2278125,16.86945 C12.231225,16.8616125 12.2343375,16.853625 12.2377125,16.8457125 C12.2493375,16.8182625 12.2608125,16.7907375 12.271425,16.762875 C12.273375,16.7578125 12.2750625,16.7526375 12.276975,16.7475375 C12.3132375,16.6507125 12.3435375,16.5515625 12.3675,16.4506125 C12.368475,16.446525 12.3696375,16.442475 12.3706125,16.4383875 C12.3761625,16.4145 12.3808125,16.39035 12.38565,16.366275 C12.3885375,16.351875 12.3917625,16.3375875 12.3943875,16.3231125 C12.398325,16.3015875 12.4015125,16.279875 12.40485,16.2582 C12.4075125,16.2409875 12.4104,16.2238125 12.4126875,16.2065625 C12.415425,16.1860125 12.4175625,16.16535 12.419775,16.144725 C12.4217625,16.126125 12.4238625,16.1075625 12.4254375,16.088925 C12.427125,16.068975 12.428325,16.04895 12.429525,16.028925 C12.4306875,16.0093875 12.43185,15.9898125 12.4325625,15.9702 C12.433275,15.9507 12.4336125,15.931125 12.4338375,15.9115875 C12.4340994,15.8913375 12.4342125,15.8710875 12.43395,15.8507625 C12.433725,15.8315625 12.4332,15.8123625 12.432525,15.793125 C12.431775,15.7723125 12.4307625,15.7515 12.4294875,15.73065 C12.428325,15.711825 12.4270125,15.6929625 12.4254375,15.6741 C12.4236375,15.652725 12.421425,15.63135 12.4190625,15.609975 C12.417,15.591525 12.4149375,15.573075 12.4124625,15.5545875 C12.4095375,15.5326875 12.4060875,15.5107875 12.4025625,15.4888875 C12.399675,15.470925 12.3968625,15.4529625 12.393525,15.4349625 C12.3893625,15.4123125 12.384525,15.3896625 12.3796875,15.36705 C12.3760125,15.3498375 12.3725625,15.3325875 12.3685125,15.3154125 C12.3628875,15.2916 12.3565125,15.2679 12.350175,15.244125 C12.3459,15.2281125 12.3419625,15.2120625 12.33735,15.1960875 C12.3297375,15.1696875 12.32115,15.1433625 12.3126,15.1170375 C12.3082875,15.1038 12.3044625,15.0904875 12.299925,15.07725 C12.28635,15.037725 12.2718375,14.99835 12.2561625,14.9590875 C12.1810125,14.77125 12.0845625,14.5972875 11.9706,14.439 C11.9353875,14.3901 11.898,14.34315 11.8595625,14.2972875 C11.8254,14.256525 11.7903375,14.2166625 11.7538125,14.178375 C11.7516375,14.1760875 11.749575,14.17365 11.7474,14.1714 C11.7206625,14.14365 11.6933625,14.1165375 11.665425,14.0901375 C11.6374875,14.0637375 11.609025,14.0380125 11.58,14.0129625 C11.5219125,13.9629 11.46165,13.9156125 11.3994375,13.87125 C11.3061,13.8046875 11.208375,13.7446875 11.1070875,13.6915875 C10.841175,13.5521625 10.55055,13.4607375 10.25025,13.4236125 C10.2422625,13.4226375 10.2342375,13.4215875 10.22625,13.4206875 C10.1531625,13.4123625 10.0795125,13.407075 10.005525,13.40535 C9.8895375,13.4026125 9.772725,13.4080875 9.655875,13.4221125 C9.539025,13.4361375 9.422175,13.4587875 9.30615,13.4903625 C9.26745,13.5009 9.2288625,13.5124125 9.1903875,13.5249375 C9.11655,13.548975 9.0447,13.5761625 8.9749125,13.606275 C8.974875,13.6063125 8.9748,13.6063125 8.9747625,13.60635 C8.943375,13.6198875 8.91255,13.6342125 8.8819875,13.6489125 C8.87295,13.6532625 8.864025,13.6577625 8.8550625,13.6621875 C8.8325625,13.6733625 8.810325,13.6848375 8.788275,13.6966125 C8.7795375,13.7013 8.770725,13.70595 8.7620625,13.7107125 C8.6530875,13.7707125 8.5502625,13.838475 8.4534,13.9124625 C8.43705,13.9249875 8.4203625,13.9372875 8.4043125,13.9501875 Z" id="Path" fill="#1D4859" fill-rule="nonzero"></path>
                                    <path d="M18.7487625,11.6975625 L1.3128,11.6975625 C1.063575,11.6975625 0.8615625,11.49555 0.8615625,11.246325 L0.8615625,2.5312875 C0.8615625,2.2820625 1.063575,2.08005 1.3128,2.08005 L18.748725,2.08005 C18.99795,2.08005 19.1999625,2.2820625 19.1999625,2.5312875 L19.1999625,11.2463625 C19.1999625,11.49555 18.9979875,11.6975625 18.7487625,11.6975625 Z" id="Path" fill="#4DC3B6" fill-rule="nonzero"></path>
                                    <path d="M5.09430884,5.98999269 C5.07722466,5.97362946 5.05535772,5.96546217 5.0287779,5.96546217 L4.54131481,5.96546217 C4.50898368,5.81460141 4.44816562,5.68364782 4.35885064,5.57274467 L5.02304657,5.57274467 C5.04969628,5.57274467 5.07150331,5.56456783 5.0886474,5.54824281 C5.10566168,5.53188913 5.11420875,5.51095987 5.11420875,5.48551232 L5.11420875,5.20727056 C5.11420875,5.18180391 5.10567166,5.16091285 5.0886474,5.14454007 C5.07148334,5.1282055 5.04967631,5.12 5.0230266,5.12 L2.65121211,5.12 C2.62459235,5.12 2.60275537,5.1282055 2.58564124,5.14453052 C2.56857703,5.1609033 2.56,5.18179436 2.56,5.207261 L2.56,5.56998403 C2.56,5.59361662 2.56902635,5.61406827 2.58707906,5.63133898 C2.60513177,5.64860968 2.62650946,5.65724503 2.65121211,5.65724503 L3.06457722,5.65724503 C3.46556105,5.65724503 3.72023605,5.75994269 3.82855231,5.96541441 L2.65121211,5.96541441 C2.62459235,5.96541441 2.60272541,5.9735817 2.58564124,5.98994492 C2.56857703,6.00632726 2.56,6.02720876 2.56,6.05267541 L2.56,6.33087897 C2.56,6.35632651 2.56853709,6.37724623 2.58564124,6.39357125 C2.60275537,6.40995358 2.62463229,6.41810176 2.65121211,6.41810176 L3.86852188,6.41810176 C3.8267051,6.56723354 3.72929236,6.68084956 3.57628366,6.75903581 C3.42326499,6.8372316 3.22138018,6.8763295 2.97049944,6.8763295 L2.65121211,6.8763295 C2.62650946,6.8763295 2.60513177,6.8849744 2.58707906,6.90223556 C2.56901637,6.91951581 2.56,6.93997701 2.56,6.9635905 L2.56,7.30998851 C2.56,7.33365931 2.56853709,7.35365244 2.58564124,7.36999657 C2.95051964,7.74089643 3.42376423,8.25994418 4.00531509,8.92727354 C4.0224392,8.94911029 4.04618331,8.96 4.07659733,8.96 L4.632477,8.96 C4.67242661,8.96 4.70000491,8.94368453 4.715162,8.91089121 C4.73416328,8.87816475 4.73043891,8.84725324 4.70374925,8.81815669 C4.14886808,8.16722876 3.71266749,7.67996179 3.3952773,7.35633666 C3.71836887,7.3199803 3.98064239,7.21995731 4.18210783,7.05635368 C4.38354332,6.89273094 4.50610803,6.67996119 4.5498519,6.41814952 L5.0287779,6.41814952 C5.05535772,6.41814952 5.07723465,6.40999179 5.09430884,6.39361901 C5.11143295,6.37729399 5.12,6.35637427 5.12,6.33092673 L5.12,6.05275183 C5.12,6.02725653 5.11143295,6.00636547 5.09430884,5.98999269 Z" id="Path" fill="#FFFFFF" fill-rule="evenodd"></path>
                                    <path d="M18.7487625,2.0800125 L17.4664125,2.0800125 L17.4664125,10.4799 C17.4664125,10.729125 17.2644,10.9311375 17.015175,10.9311375 L0.8615625,10.9311375 L0.8615625,11.246325 C0.8615625,11.49555 1.0636125,11.6975625 1.3128,11.6975625 L18.748725,11.6975625 C18.99795,11.6975625 19.1999625,11.4955125 19.1999625,11.246325 L19.1999625,2.5312875 C19.1999625,2.2820625 18.9979875,2.0800125 18.7487625,2.0800125 Z" id="Path" fill="#3FA297" fill-rule="nonzero"></path>
                                    <rect id="Rectangle" fill="#3FA297" fill-rule="nonzero" x="6.587875" y="2.0800875" width="1" height="9.617625"></rect>
                                    <path d="M9.2178375,0.0191625 L4.0303875,13.9501875 C3.8031,13.76745 3.539625,13.62105 3.244275,13.5248625 C2.0131125,13.1239125 0.6593625,13.7568 0.1785,14.9590125 C-0.3414,16.2588 0.3151875,17.722125 1.6184625,18.204225 C2.9100375,18.681975 4.3427625,17.9896875 4.8174375,16.69695 L10.188825,2.0800125 C10.4963625,1.2424875 10.0594875,0.3152625 9.2178375,0.0191625 L9.2178375,0.0191625 Z M3.5497125,16.27425 C3.3324,16.8661125 2.6764125,17.16975 2.08455,16.9524375 C1.4926875,16.735125 1.18905,16.0791375 1.4063625,15.487275 C1.623675,14.8954125 2.2796625,14.591775 2.871525,14.8090875 C3.4633875,15.0264375 3.767025,15.6823875 3.5497125,16.27425 Z" id="Shape" fill="#2D5872" fill-rule="nonzero"></path>
                                    <path d="M9.35955,0.0769125 C9.6089625,0.4803375 9.677925,0.9901125 9.5014875,1.4706 L4.1301,16.0875 C3.655425,17.3802375 2.2227375,18.072525 0.931125,17.594775 C0.7850625,17.5407375 0.647625,17.4738 0.51855,17.3967375 C0.792825,17.751975 1.1667,18.037125 1.618425,18.204225 C2.91,18.681975 4.342725,17.9896875 4.8174,16.69695 L10.188825,2.0800125 C10.47855,1.2909375 10.1073375,0.4224 9.35955,0.0769125 Z" id="Path" fill="#1D4859" fill-rule="nonzero"></path>
                                    <g id="Group" stroke-width="1" fill="none" fill-rule="evenodd" transform="translate(9.600000, 5.625000)">
                                        <path d="M1.556925,0.053925 L0.1644375,0.053925 C0.0627375,0.053925 0.009525,0.153825 0.009525,0.2524875 C0.009525,0.3694875 0.0746625,0.454425 0.1644375,0.454425 L0.647025,0.454425 L0.647025,2.4268125 C0.647025,2.51805 0.7355625,2.5817625 0.86235,2.5817625 C0.969375,2.5817625 1.0777125,2.52855 1.0777125,2.4268125 L1.0777125,0.454425 L1.556925,0.454425 C1.6481625,0.454425 1.711875,0.3700125 1.711875,0.2491125 C1.7118375,0.1551375 1.66335,0.053925 1.556925,0.053925 Z" id="Path" fill="#FFFFFF" fill-rule="nonzero"></path>
                                        <path d="M3.749775,0.1802625 C3.7201125,0.0913125 3.616575,0.033825 3.4860375,0.033825 C3.357525,0.033825 3.2553,0.0913125 3.225375,0.181125 L2.55795,2.35455 C2.552625,2.3704125 2.552625,2.3849625 2.552625,2.396625 C2.552625,2.50575 2.689125,2.5818 2.8116,2.5818 C2.9179125,2.5818 2.95725,2.52735 2.9717625,2.4808875 L3.101475,2.0315625 L3.8738625,2.0315625 L4.0038375,2.4817125 C4.02405,2.5462875 4.0796625,2.5818375 4.1604375,2.5818375 C4.2842625,2.5818375 4.42275,2.502675 4.42275,2.3966625 C4.42275,2.3805375 4.4179875,2.366175 4.414425,2.355525 L3.749775,0.1802625 Z M3.200475,1.671225 L3.4860375,0.6918375 L3.7716,1.671225 L3.200475,1.671225 Z" id="Shape" fill="#FFFFFF" fill-rule="nonzero"></path>
                                        <path d="M7.182225,2.290425 L6.612675,1.31595 L7.165875,0.347925 C7.1868,0.3102 7.1974125,0.274725 7.1974125,0.2424375 C7.1974125,0.1254375 7.06095,0.043875 6.938475,0.043875 C6.8671125,0.043875 6.8074125,0.0872625 6.7713375,0.1640625 L6.3346875,0.9624375 L5.9045625,0.1645125 C5.8518,0.0648 5.7844125,0.043875 5.7372,0.043875 C5.6131125,0.043875 5.4748875,0.1254375 5.4748875,0.2424375 C5.4748875,0.2746875 5.4855,0.3102 5.5066875,0.3483 L6.0596625,1.31595 L5.48895,2.2926 C5.47275,2.3250375 5.4648375,2.353575 5.4648375,2.379825 C5.4648375,2.497275 5.6101875,2.5918125 5.730525,2.5918125 C5.7868125,2.5918125 5.8402125,2.5556625 5.87745,2.4918375 L6.3346875,1.658775 L6.79755,2.4905625 C6.8220375,2.5395375 6.872775,2.5918125 6.9418125,2.5918125 C7.0662,2.5918125 7.2108376,2.4991875 7.2108376,2.379825 C7.210875,2.352975 7.1998875,2.3255625 7.182225,2.290425 Z" id="Path" fill="#FFFFFF" fill-rule="nonzero"></path>
                                    </g>
                                </g>
                            </g>
                        </g>
                    </g>
                </g>
            </g>
        </g>
    </g>
</svg>